<svg width="32" height="32" viewBox="0 0 32 32" fill="none" xmlns="http://www.w3.org/2000/svg">
<path d="M28.56 14.5627C28.7987 14.4574 29.0012 14.2844 29.1426 14.0651C29.2839 13.8459 29.3578 13.5899 29.3551 13.3291C29.3524 13.0682 29.2732 12.8138 29.1274 12.5975C28.9815 12.3812 28.7755 12.2124 28.5346 12.1121L17.1066 6.90674C16.7592 6.74827 16.3818 6.66626 16 6.66626C15.6181 6.66626 15.2407 6.74827 14.8933 6.90674L3.46664 12.1067C3.22927 12.2107 3.02733 12.3816 2.88553 12.5985C2.74373 12.8154 2.66821 13.0689 2.66821 13.3281C2.66821 13.5872 2.74373 13.8407 2.88553 14.0576C3.02733 14.2746 3.22927 14.4454 3.46664 14.5494L14.8933 19.7601C15.2407 19.9185 15.6181 20.0005 16 20.0005C16.3818 20.0005 16.7592 19.9185 17.1066 19.7601L28.56 14.5627Z" stroke="white" stroke-width="2.66667" stroke-linecap="round" stroke-linejoin="round"/>
<path d="M29.3334 13.3333V21.3333" stroke="white" stroke-width="2.66667" stroke-linecap="round" stroke-linejoin="round"/>
<path d="M8 16.6667V21.3334C8 22.3943 8.84286 23.4117 10.3431 24.1618C11.8434 24.912 13.8783 25.3334 16 25.3334C18.1217 25.3334 20.1566 24.912 21.6569 24.1618C23.1571 23.4117 24 22.3943 24 21.3334V16.6667" stroke="white" stroke-width="2.66667" stroke-linecap="round" stroke-linejoin="round"/>
</svg>
